<?xml version="1.0" encoding="utf-8"?>
<!-- Generator: Adobe Illustrator 25.4.1, SVG Export Plug-In . SVG Version: 6.00 Build 0)  -->
<svg version="1.1" id="Layer_1" xmlns="http://www.w3.org/2000/svg" xmlns:xlink="http://www.w3.org/1999/xlink" x="0px" y="0px"
	 viewBox="0 0 800 800" style="enable-background:new 0 0 800 800;" xml:space="preserve">
<style type="text/css">
	.st0{fill:#FFFFFF;}
	.st1{fill-rule:evenodd;clip-rule:evenodd;fill:#B79E8C;}
</style>
<circle class="st0" cx="399.6" cy="400.4" r="400.4"/>
<g id="SVGRepo_bgCarrier">
</g>
<g id="SVGRepo_tracerCarrier">
</g>
<g id="SVGRepo_iconCarrier">
	<path class="st1" d="M717.9,435.7l-58.1,1.4l1.8,157H533.9l-5.3-158l57.2-0.4l-25.2-129l-93.1-49l45.4-22.1
		c5-24.1,25.6-34.5,25.6-49.6c0-21.1-34.6-21.1-34.6,7l-22.2-5.3c2.5-29.9,13.1-48.6,48.5-48.6c28.6,0,42.3,15.8,42.3,45.6
		c0,24.4-18.1,32.9-21.1,51l141.6,70.9L717.9,435.7z M393.8,594.2H143V443.1l-61.9,1.5l23.7-139.1l143.6-70
		c5-24.1,25.6-34.5,25.6-49.6c0-21.1-34.6-21.1-34.6,7l-22.2-5.3c2.5-29.9,13.1-48.6,48.5-48.6c28.6,0,42.3,15.8,42.3,45.6
		c0,24.4-18.1,32.9-21.1,51l141.6,71l25.2,129l-59,1.4L393.8,594.2z M380.6,235.9c4.9-24.5,25.7-34.8,25.7-49.8
		c0-21.1-34.6-21.1-34.6,7l-22.2-5.3c2.5-29.9,13.1-48.6,48.5-48.6c28.6,0,42.3,15.8,42.3,45.6c0,26-20.5,34-21.7,54.6L380.6,235.9z
		"/>
</g>
</svg>
