<svg id="Layer_1" data-name="Layer 1" xmlns="http://www.w3.org/2000/svg" viewBox="0 0 133.11 20.4"><defs><style>.cls-1{fill:#b79e8c;fill-rule:evenodd;}.cls-2{isolation:isolate;}.cls-3{fill:#4d4d4d;}</style></defs><g id="SVGRepo_iconCarrier" data-name="SVGRepo iconCarrier"><path class="cls-1" d="M28.5,13.3l-2.6.1.1,7H20.3L20,13.3h2.6L21.5,7.5,17.3,5.3l2-1c.2-1.1,1.1-1.5,1.1-2.2,0-1-1.5-1-1.5.3l-1-.2C18,.8,18.5,0,20.1,0,21.4,0,22,.7,22,2c0,1.1-.8,1.5-1,2.3l6.3,3.2ZM14,20.4H2.8V13.6L0,13.7,1.1,7.5,7.5,4.4c.2-1.1,1.1-1.5,1.1-2.2,0-1-1.5-1-1.5.3l-1-.2C6.2.8,6.7,0,8.3,0c1.3,0,1.9.7,1.9,2.1,0,1.1-.8,1.5-.9,2.3l6.3,3.2,1.2,5.8H14ZM13.4,4.3c.2-1.1,1.1-1.6,1.1-2.2,0-1-1.6-1-1.6.3l-1-.2C12.1.8,12.6,0,14.2,0c1.3,0,1.9.7,1.9,2.1,0,1.2-.9,1.5-1,2.4Z"/></g><g class="cls-2"><path class="cls-3" d="M33.28,14.88H31.71a.5.5,0,0,1-.48-.24,1.45,1.45,0,0,1-.15-.75v-6a1.45,1.45,0,0,1,.15-.76.52.52,0,0,1,.48-.23h1.67A2.51,2.51,0,0,1,34,7a1,1,0,0,1,.48.27,1.46,1.46,0,0,1,.32.43,2,2,0,0,1,.22.57,3.51,3.51,0,0,1,.07.66,2,2,0,0,1-.77,1.76,2,2,0,0,1,1,1.95,3.11,3.11,0,0,1-.22,1.21,1.77,1.77,0,0,1-.6.79,1.65,1.65,0,0,1-.54.22A3.69,3.69,0,0,1,33.28,14.88ZM32.12,8.1v2.07h1a1.25,1.25,0,0,0,.6-.12A.71.71,0,0,0,34,9.62a1.46,1.46,0,0,0,.09-.52.92.92,0,0,0-.28-.8A1.44,1.44,0,0,0,33,8.1Zm1.09,3.23H32.12v2.33h1.12c.7,0,1.06-.39,1.06-1.18A1.22,1.22,0,0,0,34,11.6,1.1,1.1,0,0,0,33.21,11.33Z"/><path class="cls-3" d="M38.51,6.75a2.05,2.05,0,0,1,1.38.5,3.1,3.1,0,0,1,.86,1.44,7.13,7.13,0,0,1,.3,2.18,8,8,0,0,1-.16,1.69,4.41,4.41,0,0,1-.49,1.31,2.41,2.41,0,0,1-.79.85,2.11,2.11,0,0,1-2.15,0,2.34,2.34,0,0,1-.8-.85,4.61,4.61,0,0,1-.48-1.33A7.94,7.94,0,0,1,36,10.86a8.06,8.06,0,0,1,.17-1.69,4.47,4.47,0,0,1,.5-1.31A2.28,2.28,0,0,1,37.46,7,2,2,0,0,1,38.51,6.75ZM40,10.86a5.71,5.71,0,0,0-.18-1.52,2.08,2.08,0,0,0-.52-1A1.08,1.08,0,0,0,38.51,8a1,1,0,0,0-.57.18,1.51,1.51,0,0,0-.46.53,3,3,0,0,0-.3.89,6.43,6.43,0,0,0-.11,1.22,6.62,6.62,0,0,0,.11,1.23,3.3,3.3,0,0,0,.31.92,1.68,1.68,0,0,0,.46.54,1,1,0,0,0,.58.18,1.09,1.09,0,0,0,.73-.31,2.18,2.18,0,0,0,.54-1A5.66,5.66,0,0,0,40,10.86Z"/><path class="cls-3" d="M42,11.57V7.73A1.41,1.41,0,0,1,42.09,7a.41.41,0,0,1,.37-.25.44.44,0,0,1,.39.25,1.52,1.52,0,0,1,.14.73v3.93a5.82,5.82,0,0,0,.09,1.12,1.4,1.4,0,0,0,.35.7.93.93,0,0,0,.68.25.89.89,0,0,0,.87-.51,3.66,3.66,0,0,0,.25-1.53v-4A1.45,1.45,0,0,1,45.37,7a.41.41,0,0,1,.75,0,1.44,1.44,0,0,1,.15.74v3.84a8.57,8.57,0,0,1-.12,1.57,2.83,2.83,0,0,1-.44,1.1,1.8,1.8,0,0,1-.65.59,2,2,0,0,1-.87.18,2.41,2.41,0,0,1-1-.19,1.67,1.67,0,0,1-.7-.62,3.19,3.19,0,0,1-.4-1.07A8.68,8.68,0,0,1,42,11.57Z"/><path class="cls-3" d="M50.73,8.22H49.6V14a1.44,1.44,0,0,1-.15.74.41.41,0,0,1-.74,0,1.44,1.44,0,0,1-.15-.74V8.22H47.42A.45.45,0,0,1,47,8a.78.78,0,0,1-.13-.48A.79.79,0,0,1,47,7.07a.46.46,0,0,1,.39-.18h3.31a.45.45,0,0,1,.4.18.84.84,0,0,1,.14.49.78.78,0,0,1-.14.48A.46.46,0,0,1,50.73,8.22Z"/><path class="cls-3" d="M51.93,14V7.73A1.41,1.41,0,0,1,52.07,7a.42.42,0,0,1,.37-.25.43.43,0,0,1,.38.24,1.44,1.44,0,0,1,.15.74V14a1.44,1.44,0,0,1-.15.74.41.41,0,0,1-.75,0A1.5,1.5,0,0,1,51.93,14Z"/><path class="cls-3" d="M58.26,13.89c.16.16.32.31.5.46a2,2,0,0,1,.36.36.71.71,0,0,1,0,.73.27.27,0,0,1-.25.17.56.56,0,0,1-.29-.12,2.76,2.76,0,0,1-.39-.35c-.16-.15-.33-.33-.51-.53a1.93,1.93,0,0,1-1.25.4,2,2,0,0,1-1.07-.29,2.47,2.47,0,0,1-.8-.86,4.33,4.33,0,0,1-.48-1.33,7.94,7.94,0,0,1-.17-1.67,8.06,8.06,0,0,1,.17-1.69,4.47,4.47,0,0,1,.5-1.31A2.28,2.28,0,0,1,55.34,7a2,2,0,0,1,1-.29,2.05,2.05,0,0,1,1.38.5,3.1,3.1,0,0,1,.86,1.44,7.13,7.13,0,0,1,.3,2.18A5.83,5.83,0,0,1,58.26,13.89ZM57.45,13a3.25,3.25,0,0,0,.32-.91,6.44,6.44,0,0,0,.1-1.23,5.71,5.71,0,0,0-.18-1.52,2.17,2.17,0,0,0-.52-1A1.1,1.1,0,0,0,56.39,8a1,1,0,0,0-.57.18,1.51,1.51,0,0,0-.46.53,3,3,0,0,0-.3.89A5.7,5.7,0,0,0,55,10.86,4.48,4.48,0,0,0,55.36,13a1.22,1.22,0,0,0,1,.75,1,1,0,0,0,.53-.17,2.52,2.52,0,0,0-.41-.38,2.37,2.37,0,0,1-.34-.3.42.42,0,0,1-.09-.29.48.48,0,0,1,.09-.29.24.24,0,0,1,.19-.13C56.59,12.17,57,12.45,57.45,13Z"/><path class="cls-3" d="M59.83,11.57V7.73A1.41,1.41,0,0,1,60,7a.41.41,0,0,1,.75,0,1.4,1.4,0,0,1,.15.73v3.93A5.82,5.82,0,0,0,61,12.78a1.4,1.4,0,0,0,.35.7.93.93,0,0,0,.68.25.87.87,0,0,0,.86-.51,3.48,3.48,0,0,0,.26-1.53v-4A1.45,1.45,0,0,1,63.25,7,.41.41,0,0,1,64,7a1.44,1.44,0,0,1,.15.74v3.84A8.57,8.57,0,0,1,64,13.14a2.83,2.83,0,0,1-.44,1.1,1.8,1.8,0,0,1-.65.59,2,2,0,0,1-.87.18,2.41,2.41,0,0,1-1-.19,1.67,1.67,0,0,1-.7-.62,3.19,3.19,0,0,1-.4-1.07A8.68,8.68,0,0,1,59.83,11.57Z"/><path class="cls-3" d="M68.66,8.13H66.32v2h2.16a.41.41,0,0,1,.35.16.74.74,0,0,1,.12.44.79.79,0,0,1-.12.45.39.39,0,0,1-.35.17H66.32v2.27h2.42a.41.41,0,0,1,.37.18.82.82,0,0,1,.13.47.81.81,0,0,1-.13.46.41.41,0,0,1-.37.18H65.91a.54.54,0,0,1-.49-.24,1.43,1.43,0,0,1-.15-.75v-6a2.21,2.21,0,0,1,.07-.57A.51.51,0,0,1,65.55,7a.57.57,0,0,1,.36-.1h2.75a.4.4,0,0,1,.37.17.75.75,0,0,1,.12.45A.75.75,0,0,1,69,8,.4.4,0,0,1,68.66,8.13Z"/><path class="cls-3" d="M72.5,6.89h1.36a2.48,2.48,0,0,1,.91.15,1.65,1.65,0,0,1,.69.57,5.44,5.44,0,0,1,.8,3.25,10.35,10.35,0,0,1-.08,1.31,6.14,6.14,0,0,1-.25,1.08,3.77,3.77,0,0,1-.43.85,2,2,0,0,1-.45.46,1.61,1.61,0,0,1-.53.25,3.06,3.06,0,0,1-.64.07H72.53a.57.57,0,0,1-.62-.51,3.62,3.62,0,0,1,0-.63V7.88A1.47,1.47,0,0,1,72,7.12.52.52,0,0,1,72.5,6.89Zm.41,1.28v5.42h.79l.4,0a1.05,1.05,0,0,0,.31-.11.91.91,0,0,0,.27-.25,4,4,0,0,0,.52-2.36A5,5,0,0,0,75,9.08a1.32,1.32,0,0,0-.56-.75,1.88,1.88,0,0,0-.82-.16Z"/><path class="cls-3" d="M80.56,8.13H78.22v2h2.16a.39.39,0,0,1,.35.16.74.74,0,0,1,.12.44.79.79,0,0,1-.12.45.39.39,0,0,1-.35.17H78.22v2.27h2.42a.41.41,0,0,1,.37.18.82.82,0,0,1,.13.47.81.81,0,0,1-.13.46.41.41,0,0,1-.37.18H77.81a.54.54,0,0,1-.49-.24,1.43,1.43,0,0,1-.15-.75v-6a2.21,2.21,0,0,1,.07-.57A.6.6,0,0,1,77.45,7a.59.59,0,0,1,.36-.1h2.75a.4.4,0,0,1,.37.17.75.75,0,0,1,.12.45.75.75,0,0,1-.12.45A.4.4,0,0,1,80.56,8.13Z"/><path class="cls-3" d="M84.78,7.73v5.82h2.11a.44.44,0,0,1,.39.19,1,1,0,0,1,0,1,.46.46,0,0,1-.39.18H84.38a.53.53,0,0,1-.49-.24,1.43,1.43,0,0,1-.15-.75V7.73A1.52,1.52,0,0,1,83.88,7a.41.41,0,0,1,.37-.25.42.42,0,0,1,.38.24A1.44,1.44,0,0,1,84.78,7.73Z"/><path class="cls-3" d="M91.29,14l-.24-1H89l-.25,1a4,4,0,0,1-.25.81.33.33,0,0,1-.33.21.41.41,0,0,1-.34-.22.84.84,0,0,1-.16-.51,1.86,1.86,0,0,1,0-.33,4.77,4.77,0,0,1,.12-.49L89.1,8.27c0-.15.08-.33.14-.54a3.25,3.25,0,0,1,.16-.52.91.91,0,0,1,.24-.33A.5.5,0,0,1,90,6.75a.52.52,0,0,1,.36.13.83.83,0,0,1,.24.33,2.72,2.72,0,0,1,.15.43c0,.16.09.36.15.62l1.35,5.16a3.87,3.87,0,0,1,.15.85.9.9,0,0,1-.15.51.4.4,0,0,1-.36.23.37.37,0,0,1-.21-.06.72.72,0,0,1-.14-.19,1.76,1.76,0,0,1-.13-.36C91.36,14.24,91.32,14.1,91.29,14Zm-2.06-2.22h1.54L90,8.46Z"/><path class="cls-3" d="M98,7.73v4.19c0,.36,0,.67,0,.92a4.24,4.24,0,0,1-.13.78,2.12,2.12,0,0,1-.58,1,1.44,1.44,0,0,1-1,.36,1.46,1.46,0,0,1-.87-.25,1.76,1.76,0,0,1-.56-.83,5.07,5.07,0,0,1-.18-.7,4.13,4.13,0,0,1-.07-.76,1.08,1.08,0,0,1,.13-.59.44.44,0,0,1,.36-.2.35.35,0,0,1,.31.19,1.79,1.79,0,0,1,.16.58c0,.28.08.5.12.67a1.06,1.06,0,0,0,.2.43.46.46,0,0,0,.4.18c.46,0,.69-.53.69-1.58V7.73A1.41,1.41,0,0,1,97.05,7a.4.4,0,0,1,.37-.25.44.44,0,0,1,.39.25A1.52,1.52,0,0,1,98,7.73Z"/><path class="cls-3" d="M102.47,8.13h-2.35v2h2.16a.41.41,0,0,1,.36.16.82.82,0,0,1,.11.44.88.88,0,0,1-.11.45.42.42,0,0,1-.36.17h-2.16v2.27h2.43a.43.43,0,0,1,.37.18.82.82,0,0,1,.12.47.81.81,0,0,1-.12.46.43.43,0,0,1-.37.18H99.72a.53.53,0,0,1-.49-.24,1.43,1.43,0,0,1-.15-.75v-6a1.85,1.85,0,0,1,.07-.57.54.54,0,0,1,.2-.32.62.62,0,0,1,.37-.1h2.75a.43.43,0,0,1,.37.17.75.75,0,0,1,.12.45.75.75,0,0,1-.12.45A.43.43,0,0,1,102.47,8.13Z"/><path class="cls-3" d="M103.88,11.57V7.73A1.41,1.41,0,0,1,104,7a.41.41,0,0,1,.75,0,1.4,1.4,0,0,1,.15.73v3.93a5.82,5.82,0,0,0,.09,1.12,1.48,1.48,0,0,0,.34.7,1,1,0,0,0,.69.25.87.87,0,0,0,.86-.51,3.48,3.48,0,0,0,.26-1.53v-4A1.45,1.45,0,0,1,107.3,7a.41.41,0,0,1,.75,0,1.44,1.44,0,0,1,.15.74v3.84a8.57,8.57,0,0,1-.12,1.57,3,3,0,0,1-.44,1.1,1.75,1.75,0,0,1-.66.59,1.91,1.91,0,0,1-.86.18,2.49,2.49,0,0,1-1-.19,1.71,1.71,0,0,1-.69-.62,3,3,0,0,1-.4-1.07A8.68,8.68,0,0,1,103.88,11.57Z"/><path class="cls-3" d="M110.68,7.72l2,4.71V7.68a1.58,1.58,0,0,1,.13-.7.38.38,0,0,1,.7,0,1.45,1.45,0,0,1,.13.7V14c0,.7-.19,1-.56,1a.51.51,0,0,1-.25-.06.57.57,0,0,1-.21-.2,1.59,1.59,0,0,1-.19-.32c-.05-.12-.11-.24-.16-.37l-2-4.66v4.69a1.44,1.44,0,0,1-.13.69.4.4,0,0,1-.35.23.39.39,0,0,1-.36-.23,1.44,1.44,0,0,1-.13-.69V7.92a3.16,3.16,0,0,1,0-.61.91.91,0,0,1,.22-.4.47.47,0,0,1,.34-.16.4.4,0,0,1,.24.07.79.79,0,0,1,.17.19c0,.08.1.19.16.31Z"/><path class="cls-3" d="M118.17,8.13h-2.35v2H118a.41.41,0,0,1,.36.16.74.74,0,0,1,.11.44.79.79,0,0,1-.11.45.42.42,0,0,1-.36.17h-2.16v2.27h2.43a.43.43,0,0,1,.37.18.82.82,0,0,1,.12.47.81.81,0,0,1-.12.46.43.43,0,0,1-.37.18h-2.83a.53.53,0,0,1-.49-.24,1.43,1.43,0,0,1-.15-.75v-6a1.85,1.85,0,0,1,.07-.57.54.54,0,0,1,.2-.32.62.62,0,0,1,.37-.1h2.75a.41.41,0,0,1,.37.17.75.75,0,0,1,.12.45.75.75,0,0,1-.12.45A.41.41,0,0,1,118.17,8.13Z"/><path class="cls-3" d="M123.48,12.48a3.35,3.35,0,0,1-.24,1.3,2,2,0,0,1-.71.91,1.82,1.82,0,0,1-1.09.32,1.79,1.79,0,0,1-1.26-.44,2.48,2.48,0,0,1-.57-.86,2.71,2.71,0,0,1-.22-1.05.91.91,0,0,1,.13-.5.39.39,0,0,1,.34-.21.33.33,0,0,1,.28.16,1.56,1.56,0,0,1,.19.49,6,6,0,0,0,.21.64,1.23,1.23,0,0,0,.32.42.86.86,0,0,0,.55.17,1,1,0,0,0,.75-.34,1.24,1.24,0,0,0,.29-.84,1.13,1.13,0,0,0-.16-.64,1,1,0,0,0-.4-.38,5.69,5.69,0,0,0-.66-.28,3.67,3.67,0,0,1-.93-.47,1.82,1.82,0,0,1-.59-.74A2.64,2.64,0,0,1,119.49,9a2.91,2.91,0,0,1,.23-1.17,1.77,1.77,0,0,1,.67-.78,1.85,1.85,0,0,1,1-.28,1.74,1.74,0,0,1,.82.18,1.69,1.69,0,0,1,.57.49,2,2,0,0,1,.44,1.28,1,1,0,0,1-.13.52.38.38,0,0,1-.33.23.29.29,0,0,1-.27-.14,2,2,0,0,1-.2-.45,2.24,2.24,0,0,0-.34-.71.74.74,0,0,0-.63-.25.82.82,0,0,0-.65.28,1,1,0,0,0-.25.66.86.86,0,0,0,.09.41.76.76,0,0,0,.23.3,1.31,1.31,0,0,0,.3.2l.49.21a5.86,5.86,0,0,1,.79.34,2.2,2.2,0,0,1,.6.47,1.78,1.78,0,0,1,.39.69A3.35,3.35,0,0,1,123.48,12.48Z"/><path class="cls-3" d="M128.26,12.48a3.35,3.35,0,0,1-.24,1.3,2,2,0,0,1-.7.91,1.83,1.83,0,0,1-1.1.32,1.79,1.79,0,0,1-1.25-.44,2.35,2.35,0,0,1-.57-.86,2.71,2.71,0,0,1-.22-1.05.91.91,0,0,1,.13-.5.39.39,0,0,1,.34-.21.31.31,0,0,1,.27.16,1.34,1.34,0,0,1,.2.49,6,6,0,0,0,.21.64,1.12,1.12,0,0,0,.32.42.86.86,0,0,0,.55.17,1,1,0,0,0,.75-.34,1.24,1.24,0,0,0,.29-.84,1.13,1.13,0,0,0-.16-.64,1,1,0,0,0-.4-.38,5.69,5.69,0,0,0-.66-.28,3.67,3.67,0,0,1-.93-.47,1.82,1.82,0,0,1-.59-.74A2.64,2.64,0,0,1,124.28,9a2.91,2.91,0,0,1,.23-1.17,1.71,1.71,0,0,1,.67-.78,1.85,1.85,0,0,1,1-.28,1.74,1.74,0,0,1,.82.18,1.69,1.69,0,0,1,.57.49A2,2,0,0,1,128,8.7a1,1,0,0,1-.13.52.38.38,0,0,1-.33.23.29.29,0,0,1-.27-.14,2,2,0,0,1-.2-.45,2.47,2.47,0,0,0-.34-.71.74.74,0,0,0-.63-.25.81.81,0,0,0-.65.28,1,1,0,0,0-.25.66.86.86,0,0,0,.09.41.76.76,0,0,0,.23.3,1.31,1.31,0,0,0,.3.2l.49.21a5.86,5.86,0,0,1,.79.34,2.2,2.2,0,0,1,.6.47,1.92,1.92,0,0,1,.39.69A3.37,3.37,0,0,1,128.26,12.48Z"/><path class="cls-3" d="M132.54,8.13h-2.35v2h2.16a.41.41,0,0,1,.36.16.82.82,0,0,1,.11.44.79.79,0,0,1-.11.45.42.42,0,0,1-.36.17h-2.16v2.27h2.43a.43.43,0,0,1,.37.18.82.82,0,0,1,.12.47.81.81,0,0,1-.12.46.43.43,0,0,1-.37.18h-2.83a.53.53,0,0,1-.49-.24,1.43,1.43,0,0,1-.15-.75v-6a1.85,1.85,0,0,1,.07-.57.54.54,0,0,1,.2-.32.62.62,0,0,1,.37-.1h2.75a.41.41,0,0,1,.37.17.75.75,0,0,1,.12.45.75.75,0,0,1-.12.45A.41.41,0,0,1,132.54,8.13Z"/></g></svg>