<svg id="Layer_1" data-name="Layer 1" xmlns="http://www.w3.org/2000/svg" viewBox="0 0 171 32"><defs><style>.cls-1{fill:#b79e8c;fill-rule:evenodd;}.cls-2{font-size:13px;fill:#1a1a1a;font-family:ArialRoundedMTBold, Arial Rounded MT Bold;}</style></defs><g id="SVGRepo_iconCarrier" data-name="SVGRepo iconCarrier"><path class="cls-1" d="M37.81,18.83l-2.6.06.08,7H29.56l-.23-7.08,2.56,0L30.76,13l-4.17-2.19,2-1c.23-1.09,1.15-1.55,1.15-2.22,0-.95-1.55-.95-1.55.31l-1-.24c.11-1.34.59-2.17,2.17-2.17,1.29,0,1.9.71,1.9,2,0,1.09-.81,1.47-.95,2.28L36.68,13ZM23.29,25.94H12.05V19.16l-2.77.07L10.34,13l6.44-3.13c.22-1.09,1.14-1.55,1.14-2.22,0-.95-1.55-.95-1.55.31l-1-.24c.11-1.34.58-2.17,2.17-2.17,1.28,0,1.89.71,1.89,2,0,1.09-.81,1.47-.94,2.28L24.84,13,26,18.83l-2.65.06ZM22.7,9.87c.21-1.09,1.15-1.56,1.15-2.23,0-.95-1.56-.95-1.56.31l-1-.24c.11-1.34.59-2.17,2.17-2.17,1.28,0,1.9.71,1.9,2,0,1.16-.92,1.52-1,2.44Z"/></g><text class="cls-2" transform="translate(45.65 19.98)">CLOTHES STORE</text></svg>